<svg version="1.1" xmlns="http://www.w3.org/2000/svg" viewBox="0 0 2048 968">
<path d="M0 0 C3.05 0.01 6.11 -0 9.16 -0.01 C25.76 -0.03 42.27 0.75 58.48 4.57 C59.43 4.79 60.38 5 61.36 5.23 C72.36 7.76 83.35 10.48 93.9 14.53 C95.77 15.23 97.64 15.86 99.53 16.47 C100.13 16.67 100.73 16.86 101.35 17.06 C102.55 17.44 103.75 17.82 104.95 18.19 C110.8 20.08 116.3 22.66 121.86 25.26 C122.78 25.69 123.71 26.12 124.66 26.57 C139.69 33.58 154.19 40.83 167.86 50.26 C168.8 50.88 169.75 51.5 170.73 52.14 C201.98 73.11 220.97 102.27 228.61 139.14 C228.67 139.44 228.67 139.44 228.99 140.97 C229.8 145.13 229.96 149.03 229.86 153.26 C220.07 150.76 210.8 146.76 201.67 142.51 C198.06 140.91 194.37 139.51 190.67 138.13 C187.33 136.87 184.13 135.46 180.92 133.89 C174.42 130.84 167.58 128.85 160.73 126.76 C155.61 125.19 150.76 123.42 145.86 121.26 C144.2 120.71 142.53 120.18 140.86 119.7 C140 119.45 139.15 119.2 138.27 118.94 C136.83 118.54 135.39 118.13 133.94 117.73 C130.98 116.91 128.13 115.99 125.27 114.85 C120.54 113.06 115.73 111.96 110.79 110.89 C109.84 110.68 108.89 110.47 107.9 110.25 C105.9 109.81 103.89 109.37 101.88 108.93 C98.93 108.28 95.99 107.59 93.04 106.9 C80.33 103.94 67.87 102.12 54.86 101.26 C54.1 101.2 53.34 101.15 52.56 101.09 C29.43 99.37 6 99.91 -17.14 101.26 C-18.25 101.33 -19.36 101.39 -20.5 101.46 C-33.22 102.23 -45.82 103.24 -58.37 105.48 C-63.1 106.3 -67.85 106.87 -72.61 107.45 C-80.15 108.38 -87.67 109.4 -95.18 110.44 C-97.54 110.76 -99.89 111.08 -102.25 111.41 C-109.25 112.37 -116.19 113.38 -123.11 114.85 C-126.07 115.45 -129.02 115.82 -132.02 116.2 C-137.55 116.94 -142.85 118.12 -148.25 119.55 C-152.02 120.48 -155.81 121.07 -159.64 121.67 C-173.89 124 -188.02 127.26 -202.14 130.26 C-203.37 130.52 -204.59 130.78 -205.81 131.04 C-244.1 139.19 -244.1 139.19 -259.5 143.54 C-263.57 144.65 -267.69 145.58 -271.81 146.51 C-272.19 146.64 -272.19 146.64 -274.14 147.26 C-275.6 150.17 -275.49 153.13 -275.64 156.32 C-275.68 157.08 -275.73 157.84 -275.77 158.63 C-276.04 164.2 -276.23 169.77 -276.39 175.34 C-276.42 176.05 -276.44 176.77 -276.46 177.5 C-276.56 181.1 -276.66 184.7 -276.75 188.29 C-276.91 194.38 -277.12 200.43 -277.65 206.5 C-278.32 214.57 -278.4 222.64 -278.53 230.73 C-278.88 251.11 -279.44 271.48 -280.08 291.85 C-280.14 293.94 -280.21 296.02 -280.27 298.11 C-280.37 301.44 -280.48 304.76 -280.58 308.09 C-280.62 309.31 -280.66 310.53 -280.7 311.76 C-280.87 317.39 -281.09 323 -281.63 328.61 C-282.42 337.57 -282.54 346.56 -282.78 355.55 C-282.86 358.97 -282.96 362.4 -283.05 365.82 C-283.24 372.48 -283.42 379.13 -283.59 385.79 C-283.84 394.83 -284.08 403.88 -284.33 412.92 C-284.42 416.27 -284.51 419.62 -284.6 422.97 C-284.86 432.48 -285.17 441.94 -285.93 451.42 C-286.23 455.4 -286.35 459.36 -286.43 463.35 C-286.43 463.75 -286.43 463.75 -286.48 465.75 C-286.54 468.23 -286.59 470.71 -286.64 473.2 C-286.87 483.65 -287.16 494.08 -287.64 504.52 C-288.24 517.4 -288.47 530.27 -288.7 543.16 C-288.88 553.54 -289.11 563.89 -289.78 574.25 C-290.3 582.32 -290.49 590.39 -290.7 598.47 C-290.75 600.47 -290.81 602.48 -290.86 604.49 C-290.88 605.15 -290.9 605.81 -290.92 606.48 C-291.05 610.7 -291.34 614.89 -291.7 619.1 C-292.12 624.51 -292.1 629.8 -291.93 635.22 C-291.89 637.57 -291.86 639.91 -291.82 642.26 C-291.79 643.85 -291.73 645.45 -291.64 647.05 C-291 659.63 -291 659.63 -294.39 663.79 C-303.4 671.53 -315.2 671.3 -326.39 670.89 C-328.14 670.85 -329.88 670.82 -331.63 670.79 C-336.41 670.7 -341.2 670.54 -345.98 670.37 C-349.32 670.25 -352.67 670.15 -356.01 670.05 C-367.45 669.69 -378.89 669.28 -390.33 668.8 C-391.31 668.76 -392.29 668.72 -393.3 668.68 C-394.19 668.64 -395.08 668.6 -396 668.56 C-396.78 668.52 -397.56 668.49 -398.36 668.46 C-400.14 668.26 -400.14 668.26 -401.14 667.26 C-401.25 664.67 -401.28 662.11 -401.28 659.52 C-401.28 658.72 -401.28 657.92 -401.28 657.1 C-401.28 655.4 -401.28 653.7 -401.27 651.99 C-401.27 649.46 -401.27 646.92 -401.28 644.39 C-401.28 635.37 -401.05 626.41 -400.53 617.41 C-400.05 609.16 -399.9 600.91 -399.76 592.65 C-399.67 587.52 -399.56 582.39 -399.46 577.26 C-399.44 576.12 -399.41 574.98 -399.39 573.81 C-399.08 558.37 -398.68 542.93 -398.28 527.49 C-398.19 524.11 -398.1 520.74 -398.02 517.36 C-397.92 513.32 -397.81 509.28 -397.7 505.24 C-397.67 503.76 -397.63 502.27 -397.59 500.78 C-397.37 492.02 -397.01 483.28 -396.5 474.54 C-396.18 469.09 -395.96 463.65 -395.86 458.2 C-395.85 457.78 -395.85 457.78 -395.81 455.66 C-395.75 453.05 -395.7 450.43 -395.64 447.82 C-395.44 437.82 -395.22 427.83 -394.64 417.84 C-394.1 408.35 -393.91 398.87 -393.76 389.37 C-393.42 369.06 -392.87 348.77 -392.21 328.47 C-392.14 326.46 -392.08 324.45 -392.02 322.44 C-391.92 319.24 -391.81 316.05 -391.7 312.85 C-391.65 311.12 -391.59 309.4 -391.54 307.67 C-391.32 301.43 -390.91 295.24 -390.36 289.02 C-390.06 285.19 -389.95 281.36 -389.9 277.51 C-389.87 275.86 -389.83 274.21 -389.8 272.56 C-389.8 272.13 -389.8 272.13 -389.76 269.95 C-389.07 232.7 -387.71 195.44 -385.14 158.26 C-388.04 156.66 -390.59 155.85 -393.85 155.3 C-394.75 155.14 -395.64 154.97 -396.57 154.81 C-398.44 154.49 -400.3 154.17 -402.17 153.85 C-407.14 152.96 -411.68 151.84 -416.37 149.95 C-418.9 148.97 -421.49 148.37 -424.14 147.76 C-429 146.58 -433.51 145.12 -438.14 143.26 C-439.2 142.87 -440.26 142.47 -441.35 142.07 C-442.51 141.63 -443.67 141.2 -444.83 140.76 C-445.91 140.36 -446.98 139.96 -448.09 139.54 C-450.98 138.33 -453.48 136.89 -456.14 135.26 C-457.34 134.76 -458.55 134.3 -459.77 133.89 C-464.04 132.35 -468.12 130.48 -472.23 128.57 C-475.12 127.27 -478.03 126.07 -480.96 124.89 C-487.26 122.28 -493.29 119.26 -499.35 116.16 C-501.13 115.27 -502.92 114.4 -504.72 113.54 C-512.67 109.71 -519.95 105.37 -527.14 100.26 C-527.63 99.92 -528.12 99.58 -528.62 99.22 C-541.57 90.09 -541.57 90.09 -545.14 86.26 C-545.14 85.6 -545.14 84.94 -545.14 84.26 C-545.41 84.14 -545.41 84.14 -546.77 83.51 C-550.13 81.74 -552.75 79.2 -555.14 76.26 C-555.14 75.6 -555.14 74.94 -555.14 74.26 C-555.7 74.02 -556.25 73.78 -556.82 73.54 C-560.22 71.67 -562.09 68.89 -564.39 65.82 C-564.85 65.24 -565.31 64.65 -565.78 64.05 C-569.14 59.64 -569.14 59.64 -569.14 56.26 C-569.8 56.26 -570.46 56.26 -571.14 56.26 C-579.43 45.88 -591.14 24.73 -591.14 11.26 C-586.25 11.84 -581.86 12.84 -577.21 14.44 C-576.58 14.65 -575.95 14.87 -575.29 15.09 C-573.28 15.76 -571.28 16.45 -569.27 17.14 C-567.93 17.59 -566.59 18.04 -565.26 18.49 C-562.69 19.36 -560.13 20.23 -557.57 21.1 C-554.71 22.07 -551.85 23.02 -548.99 23.97 C-546.12 24.93 -543.28 25.93 -540.46 27.01 C-533.75 29.48 -526.93 31.58 -520.11 33.71 C-515.43 35.18 -510.81 36.72 -506.23 38.48 C-501.89 40.1 -497.48 41.55 -493.08 43.01 C-492.04 43.36 -491 43.7 -489.94 44.06 C-481.63 46.81 -473.28 49.41 -464.9 51.91 C-460.83 53.13 -456.78 54.37 -452.76 55.74 C-447.16 57.63 -441.47 59.19 -435.77 60.76 C-434.71 61.06 -433.65 61.35 -432.56 61.66 C-430.45 62.24 -428.33 62.83 -426.22 63.41 C-424.2 63.97 -422.19 64.53 -420.17 65.09 C-414.98 66.54 -409.83 67.83 -404.52 68.76 C-403.85 68.88 -403.18 69 -402.5 69.13 C-401.09 69.38 -399.69 69.63 -398.29 69.88 C-396.12 70.27 -393.96 70.67 -391.8 71.08 C-390.35 71.35 -388.9 71.62 -387.46 71.89 C-386.82 72.01 -386.18 72.13 -385.52 72.26 C-372.85 74.56 -360.02 74.42 -347.19 74.39 C-344.28 74.39 -341.38 74.39 -338.47 74.4 C-324.62 74.4 -310.94 74.17 -297.27 71.76 C-292.65 70.97 -288.06 70.23 -283.4 69.75 C-280.14 69.4 -277.07 68.87 -273.89 68.01 C-270.09 67.01 -266.28 66.05 -262.45 65.16 C-253.16 63.02 -243.94 60.73 -234.77 58.14 C-233.91 57.89 -233.05 57.65 -232.16 57.4 C-227.93 56.18 -223.92 54.81 -219.9 52.99 C-217.69 52.07 -215.4 51.47 -213.09 50.82 C-209.67 49.84 -206.31 48.68 -202.94 47.55 C-202.17 47.29 -201.41 47.03 -200.62 46.77 C-197.38 45.68 -194.14 44.59 -190.9 43.5 C-174.21 37.9 -174.21 37.9 -167.05 35.84 C-165.17 35.27 -163.35 34.6 -161.52 33.89 C-156.78 32.04 -151.91 30.61 -147.04 29.15 C-143.87 28.18 -140.8 27.15 -137.77 25.79 C-133.36 23.84 -128.77 22.59 -124.14 21.26 C-122.26 20.7 -120.37 20.14 -118.48 19.58 C-107.72 16.4 -96.96 13.3 -86.05 10.72 C-84.06 10.24 -82.08 9.74 -80.09 9.24 C-71.34 7.05 -62.6 5.45 -53.66 4.21 C-52.85 4.1 -52.04 3.99 -51.21 3.87 C-50.5 3.78 -49.79 3.68 -49.05 3.59 C-47.14 3.26 -47.14 3.26 -44.14 2.26 C-29.54 0.19 -14.72 -0.06 0 0 Z " fill="currentColor" transform="translate(637.144287109375,57.7392578125)"/>
<path d="M0 0 C31.47 -0.49 31.47 -0.49 44.84 3.3 C47.5 4.02 50.11 4.5 52.83 4.92 C64.3 6.93 75.13 10.99 85.58 16.05 C87.1 16.72 88.62 17.39 90.14 18.05 C104.17 24.32 116.89 32.05 128.58 42.05 C129.16 42.54 129.74 43.03 130.34 43.54 C135.56 48.04 140.47 52.79 145.33 57.67 C145.7 58.04 145.7 58.04 147.58 59.91 C157.58 69.93 157.58 69.93 157.58 73.05 C158.24 73.05 158.9 73.05 159.58 73.05 C160.97 74.64 162.22 76.22 163.46 77.92 C163.85 78.45 164.24 78.98 164.64 79.52 C182.22 103.69 197.48 129.83 205.87 158.67 C206.53 160.88 207.26 163.05 208.02 165.23 C216.7 191.19 220.79 218.59 220.71 245.89 C220.71 248.11 220.71 250.32 220.72 252.54 C220.73 273.6 220.73 273.6 218.58 280.05 C218.39 281.64 218.2 283.23 218.04 284.83 C216.2 302.35 211.88 319.39 206.25 336.05 C205.66 337.81 205.11 339.59 204.56 341.36 C201.98 349.63 198.37 357.29 194.58 365.05 C194.29 365.64 194.01 366.24 193.71 366.85 C181.59 391.93 166.08 413.8 147.14 434.23 C146.87 434.53 146.87 434.53 145.46 436.05 C141.77 439.96 137.96 443.9 133.58 447.05 C132.92 447.05 132.26 447.05 131.58 447.05 C131.58 447.71 131.58 448.37 131.58 449.05 C130.92 449.05 130.26 449.05 129.58 449.05 C129.58 449.71 129.58 450.37 129.58 451.05 C127.76 452.57 125.94 453.97 124.02 455.36 C123.47 455.76 122.92 456.16 122.36 456.57 C121.27 457.37 120.17 458.17 119.08 458.96 C117.82 459.87 116.57 460.81 115.33 461.75 C114.73 462.2 114.14 462.65 113.52 463.11 C113.01 463.49 112.51 463.87 111.98 464.27 C110.58 465.05 110.58 465.05 107.58 465.05 C107.58 465.71 107.58 466.37 107.58 467.05 C105.58 468.43 103.61 469.69 101.52 470.92 C100.92 471.28 100.33 471.63 99.71 472 C98.54 472.71 97.35 473.41 96.17 474.1 C94.87 474.87 93.58 475.66 92.3 476.46 C89.2 478.35 87.19 479.23 83.58 479.05 C83.58 479.71 83.58 480.37 83.58 481.05 C57.89 492.59 57.89 492.59 45.58 496.05 C45.17 496.17 45.17 496.17 43.07 496.79 C37.56 498.38 32.03 499.61 26.39 500.67 C26.07 500.73 26.07 500.73 24.42 501.04 C16.78 502.44 9.34 503.2 1.58 503.21 C0.74 503.22 -0.1 503.22 -0.97 503.22 C-2.74 503.23 -4.52 503.23 -6.29 503.23 C-8.95 503.23 -11.61 503.25 -14.27 503.27 C-27.82 503.32 -40.69 502.14 -53.92 499.11 C-54.28 499.03 -54.28 499.03 -56.14 498.63 C-60.22 497.72 -63.86 496.49 -67.67 494.76 C-69.5 494.01 -71.27 493.55 -73.2 493.12 C-78.33 491.91 -83.11 489.93 -87.98 487.92 C-88.95 487.52 -89.92 487.12 -90.91 486.71 C-99.04 483.31 -106.81 479.49 -114.42 475.05 C-114.98 474.72 -115.55 474.39 -116.13 474.05 C-126.38 468.04 -135.92 461.19 -145.11 453.67 C-145.64 453.24 -146.17 452.81 -146.71 452.37 C-147.99 451.31 -149.21 450.18 -150.42 449.05 C-150.42 448.39 -150.42 447.73 -150.42 447.05 C-150.97 446.78 -151.52 446.51 -152.09 446.23 C-155.14 444.68 -157.3 442.46 -159.67 440.05 C-159.9 439.82 -159.9 439.82 -161.06 438.68 C-164.42 435.3 -164.42 435.3 -164.42 433.05 C-165.75 432.38 -167.08 431.71 -168.42 431.05 C-169.91 429.5 -169.91 429.5 -171.3 427.66 C-171.82 426.98 -172.35 426.29 -172.88 425.59 C-173.16 425.22 -173.16 425.22 -174.54 423.36 C-174.83 422.98 -174.83 422.98 -176.28 421.05 C-188.49 404.67 -198.75 387.69 -206.65 368.83 C-207.75 366.26 -208.97 363.75 -210.17 361.23 C-212.22 356.78 -213.55 352.33 -214.74 347.58 C-215.32 345.4 -216.01 343.39 -216.86 341.3 C-223.93 322.84 -227.07 301.73 -227.42 282.05 C-227.44 281 -227.46 279.95 -227.48 278.87 C-227.72 265.24 -227.85 251.7 -225.74 238.2 C-225.37 235.7 -225.04 233.21 -224.72 230.71 C-224.48 228.84 -224.23 226.97 -223.98 225.11 C-223.93 224.68 -223.93 224.68 -223.65 222.52 C-222.92 217.29 -221.72 212.4 -220.13 207.36 C-218.85 203.18 -218.1 198.92 -217.26 194.64 C-216.33 190.33 -214.88 186.2 -213.42 182.05 C-213.16 181.3 -212.9 180.56 -212.63 179.79 C-205.32 159 -196.22 138.09 -183.42 120.05 C-182.48 118.62 -181.55 117.2 -180.62 115.77 C-173.88 105.5 -166.48 95.93 -158.4 86.68 C-157.91 86.12 -157.43 85.56 -156.92 84.98 C-156.49 84.49 -156.05 83.99 -155.6 83.48 C-154.42 82.05 -154.42 82.05 -153.39 80.36 C-153.07 79.93 -152.75 79.49 -152.42 79.05 C-151.76 79.05 -151.1 79.05 -150.42 79.05 C-150.17 78.51 -149.92 77.97 -149.67 77.42 C-147.9 74.06 -145.36 71.44 -142.42 69.05 C-141.76 69.05 -141.1 69.05 -140.42 69.05 C-140.09 68.39 -139.76 67.73 -139.42 67.05 C-139.09 66.39 -138.76 65.73 -138.42 65.05 C-137.76 65.05 -137.1 65.05 -136.42 65.05 C-136.42 64.39 -136.42 63.73 -136.42 63.05 C-125.45 51.36 -110.6 42 -97.42 33.05 C-96.86 32.67 -96.31 32.29 -95.74 31.9 C-68.11 13.36 -33.37 0.63 0 0 Z M-87.98 115.73 C-97.38 126.52 -105.21 138.48 -111.55 151.29 C-112.15 152.5 -112.77 153.71 -113.4 154.91 C-116.11 160.11 -118.1 165.43 -119.98 170.98 C-120.27 171.83 -120.56 172.67 -120.86 173.54 C-121.44 175.22 -122.02 176.9 -122.59 178.59 C-123.13 180.2 -123.68 181.8 -124.25 183.4 C-125.92 188.23 -127.13 192.95 -127.98 197.98 C-128.23 199.39 -128.48 200.8 -128.73 202.21 C-128.85 202.87 -128.97 203.54 -129.09 204.23 C-129.5 206.47 -129.99 208.69 -130.48 210.92 C-131.89 217.81 -132.48 224.85 -133.18 231.84 C-133.33 233.24 -133.5 234.63 -133.69 236.02 C-134.74 243.89 -134.62 251.81 -134.61 259.73 C-134.61 260.51 -134.61 261.28 -134.61 262.08 C-134.59 274.84 -134.05 287.38 -132.42 300.05 C-132.34 300.69 -132.26 301.34 -132.18 302 C-131.14 310.14 -129.47 318.11 -127.42 326.05 C-127.23 326.78 -127.04 327.52 -126.84 328.28 C-115.6 371.07 -95.33 413.95 -55.77 437.19 C-50.49 440.18 -44.99 442.67 -39.42 445.05 C-38.66 445.39 -37.91 445.73 -37.13 446.08 C-15.27 453.89 13.18 454.57 34.42 444.52 C37.19 443.11 39.88 441.59 42.58 440.05 C43.4 439.63 44.21 439.22 45.05 438.8 C59.83 431.27 74.37 416.77 83.58 403.05 C83.58 402.39 83.58 401.73 83.58 401.05 C84.24 401.05 84.9 401.05 85.58 401.05 C86.81 399.57 86.81 399.57 88.19 397.5 C88.7 396.74 89.2 395.98 89.72 395.21 C90.25 394.39 90.78 393.57 91.33 392.73 C91.88 391.9 92.42 391.08 92.98 390.22 C96.84 384.3 100.39 378.36 103.58 372.05 C104.22 370.83 104.86 369.61 105.5 368.39 C113.21 353.56 118.36 338.23 122.96 322.2 C123.34 320.89 123.73 319.58 124.14 318.28 C125.77 313.05 126.43 307.72 127.14 302.3 C127.39 300.43 127.64 298.56 127.9 296.69 C128.01 295.87 128.11 295.05 128.22 294.2 C128.58 292.05 128.58 292.05 129.58 289.05 C129.81 286.87 130 284.71 130.14 282.52 C130.18 281.87 130.22 281.21 130.26 280.53 C130.7 272.97 130.73 265.4 130.71 257.82 C130.71 255.42 130.71 253.01 130.72 250.61 C130.73 237.48 129.91 224.76 127.71 211.8 C127.63 211.29 127.63 211.29 127.22 208.73 C126.31 203.3 125.12 198.21 123.27 193.02 C122.35 190.38 121.71 187.7 121.08 184.98 C120.1 180.95 118.99 177.11 117.44 173.26 C116.78 171.56 116.19 169.84 115.63 168.11 C111.33 154.89 104.86 142.04 96.74 130.74 C95.58 129.05 95.58 129.05 94.55 126.82 C94.23 126.24 93.91 125.65 93.58 125.05 C92.92 125.05 92.26 125.05 91.58 125.05 C91.36 124.35 91.15 123.65 90.93 122.93 C89.21 119.25 86.87 116.77 84.08 113.86 C83.54 113.29 83 112.72 82.45 112.13 C81.35 110.98 80.24 109.82 79.13 108.67 C77.77 107.24 76.43 105.79 75.09 104.33 C62.24 90.68 45.41 82.3 27.58 77.05 C27 76.85 26.41 76.66 25.8 76.46 C-16.8 63.04 -59.46 85.52 -87.98 115.73 Z " fill="currentColor" transform="translate(650.41845703125,228.9541015625)"/>
<path d="M0 0 C0.73 0.34 1.46 0.67 2.21 1.02 C11.75 5.6 21.87 11.18 30 18 C30 18.66 30 19.32 30 20 C30.37 20.13 30.37 20.13 32.25 20.78 C35.12 22.05 36.74 23.35 38.95 25.55 C39.65 26.25 40.36 26.95 41.08 27.67 C41.79 28.4 42.51 29.12 43.25 29.88 C43.98 30.6 44.71 31.32 45.47 32.06 C46.16 32.76 46.86 33.46 47.58 34.18 C48.21 34.82 48.84 35.45 49.5 36.11 C51.08 38.11 51.59 39.51 52 42 C52.66 42 53.32 42 54 42 C55.37 43.62 56.6 45.21 57.81 46.94 C58.17 47.44 58.53 47.94 58.9 48.45 C61.47 52.1 63.69 55.85 65.77 59.8 C67.58 63.03 69.76 65.98 71.96 68.96 C73 71 73 71 72.87 73.1 C70.97 77.26 66.29 79.28 62.44 81.44 C59.68 82.07 58.41 81.51 55.81 80.59 C52.26 79.43 48.59 78.75 44.94 78 C44.09 77.82 43.25 77.65 42.38 77.47 C36.78 76.32 31.21 75.31 25.55 74.54 C23.13 74.19 20.75 73.76 18.35 73.27 C3.91 70.45 -10.5 70.51 -25.15 70.55 C-28.04 70.56 -30.92 70.56 -33.81 70.53 C-48.72 70.42 -63.39 70.64 -78.16 72.84 C-79.26 73 -80.36 73.17 -81.49 73.34 C-87.1 74.26 -91.88 75.53 -97 78 C-98.62 78.41 -100.24 78.79 -101.88 79.12 C-113.64 82.22 -124.49 89.12 -134 96.57 C-136 98 -136 98 -138 98 C-138 98.66 -138 99.32 -138 100 C-139.47 101.41 -139.47 101.41 -141.5 103.06 C-145.55 106.48 -148.94 110.22 -152.34 114.28 C-152.61 114.56 -152.61 114.56 -154 116 C-154.66 116 -155.32 116 -156 116 C-156.26 116.73 -156.53 117.45 -156.8 118.2 C-158.02 121.04 -159.44 123.25 -161.25 125.75 C-161.88 126.63 -162.5 127.52 -163.15 128.43 C-164.25 129.95 -165.35 131.47 -166.48 132.98 C-171.73 140.33 -175.25 148.63 -178.99 156.81 C-179.83 158.64 -180.69 160.47 -181.55 162.29 C-184.4 168.41 -186.8 174.62 -189 181 C-189.33 181.93 -189.66 182.87 -190 183.83 C-192.3 190.54 -194.23 197.3 -196 204.16 C-196.64 206.65 -197.32 209.12 -198.04 211.59 C-200.83 221.3 -202.37 231.05 -203.67 241.06 C-204 243 -204 243 -205 246 C-205.5 250.09 -205.77 254.2 -206.06 258.31 C-206.08 258.62 -206.08 258.62 -206.2 260.18 C-207.56 279.71 -207.54 299.22 -206.12 318.75 C-206.05 319.84 -205.97 320.93 -205.89 322.05 C-205.36 328.5 -204.36 334.68 -203 341 C-202.68 342.67 -202.37 344.34 -202.07 346.01 C-200.54 354.32 -198.97 362.61 -196.94 370.81 C-196.79 371.43 -196.64 372.04 -196.48 372.67 C-195.5 376.52 -194.23 380.17 -192.8 383.87 C-191.95 386.12 -191.18 388.39 -190.42 390.66 C-187.34 399.84 -184.04 408.6 -179.48 417.15 C-178 420 -178 420 -177.08 422.4 C-166.1 448.85 -140.67 473.3 -118 490 C-117.06 490.71 -116.12 491.42 -115.18 492.13 C-103.72 500.66 -91.9 507.91 -79 514 C-77.71 514.62 -76.42 515.23 -75.14 515.85 C-65.49 520.43 -56 524.6 -45.63 527.29 C-43.31 527.92 -41.08 528.64 -38.81 529.44 C-23.34 534.69 -7 537.35 9.12 539.71 C11.27 540.04 13.41 540.4 15.55 540.75 C47.25 545.94 82.47 546.54 114.11 540.69 C117.2 540.12 120.24 539.74 123.38 539.5 C127.95 539.11 132.21 538 136.64 536.82 C141.19 535.71 145.78 534.88 150.39 534.09 C154.42 533.38 158.13 532.33 162 531 C163.62 530.66 165.24 530.34 166.88 530.06 C170.71 529.33 174.11 528.28 177.72 526.81 C180.23 525.92 182.72 525.31 185.32 524.71 C192.69 522.9 199.82 520.5 207 518.06 C208.29 517.63 209.58 517.19 210.87 516.76 C213.38 515.91 215.9 515.06 218.41 514.21 C220.74 513.42 223.07 512.65 225.4 511.88 C230.39 510.24 235.27 508.58 240.06 506.44 C244.82 504.4 249.54 502.95 254.55 501.68 C257.25 500.93 259.68 499.9 262.22 498.74 C265.11 497.54 268.11 496.74 271.11 495.87 C273.74 495.08 276.34 494.21 278.94 493.31 C289.48 489.68 300.22 486.83 311 484 C311.76 483.8 312.52 483.59 313.3 483.38 C313.99 483.2 314.69 483.02 315.41 482.83 C316.01 482.67 316.61 482.51 317.23 482.35 C320.18 481.77 323 481.88 326 482 C326 481.34 326 480.68 326 480 C325.4 480.05 324.8 480.09 324.18 480.14 C304.84 480.91 283.15 475.65 265 469 C263.92 468.63 262.85 468.26 261.74 467.88 C254.29 465.31 247.1 462.44 240 459 C239.39 458.71 238.79 458.41 238.16 458.11 C226.11 452.26 214.53 446.11 203.76 438.06 C201.81 436.6 199.86 435.18 197.87 433.79 C197.36 433.42 196.85 433.06 196.32 432.69 C194.89 431.68 193.45 430.67 192.02 429.66 C191.69 429.39 191.69 429.39 190 428 C190 427.34 190 426.68 190 426 C189.34 426 188.68 426 188 426 C188 425.34 188 424.68 188 424 C187.34 423.67 186.68 423.34 186 423 C185.34 422.67 184.68 422.34 184 422 C184 421.34 184 420.68 184 420 C183.73 419.88 183.73 419.88 182.38 419.25 C179.01 417.48 176.4 414.94 174 412 C174 411.34 174 410.68 174 410 C173.34 410 172.68 410 172 410 C170.83 408.77 170.83 408.77 169.53 407.03 C169.29 406.71 169.29 406.71 168.07 405.07 C167.55 404.37 167.03 403.66 166.5 402.94 C165.96 402.21 165.43 401.48 164.88 400.74 C163.24 398.5 161.62 396.25 160 394 C159.54 393.37 159.08 392.73 158.6 392.08 C151.78 382.6 146.73 372.66 141.93 362.03 C140.81 359.58 139.57 357.2 138.31 354.81 C134.93 348.13 132.49 341.05 130 334 C129.64 333.01 129.28 332.02 128.91 331 C120.12 304.97 118.15 276.26 119 249 C119.02 248.21 119.05 247.41 119.07 246.6 C119.57 232.33 121.23 218.57 123.94 204.56 C124.1 203.73 124.25 202.9 124.42 202.05 C125.34 197.43 126.56 193.13 128.33 188.76 C129 187 129.46 185.27 129.88 183.44 C132.4 172.86 136.33 162.8 141 153 C141.67 151.48 142.34 149.96 143 148.44 C145.18 143.54 147.52 138.75 150 134 C150.32 133.39 150.63 132.78 150.96 132.15 C162.85 109.45 177.76 88.48 195.35 69.84 C197.4 67.66 199.35 65.44 201.25 63.12 C204.47 59.32 208.19 56.21 212 53 C212.97 52.16 213.94 51.31 214.91 50.46 C230.3 37.11 246.73 26.92 265 18 C266.38 17.29 267.75 16.58 269.12 15.88 C292.49 4.22 322.34 -4.13 348.5 -4.17 C349.3 -4.17 350.1 -4.17 350.93 -4.18 C352.62 -4.18 354.31 -4.19 355.99 -4.19 C358.53 -4.19 361.07 -4.21 363.6 -4.22 C377.17 -4.27 389.68 -3.04 402.75 0.88 C403.6 1.12 404.46 1.36 405.34 1.61 C420.76 6.12 435.77 12.87 449 22 C449.28 22.19 449.28 22.19 450.67 23.14 C458.66 28.6 465.93 34.38 473 41 C473.96 41.85 474.93 42.7 475.89 43.55 C481.34 48.36 486.4 53.35 491.12 58.88 C491.59 59.41 492.05 59.95 492.52 60.5 C495.04 63.51 496.76 66.21 498 70 C498.66 70 499.32 70 500 70 C505.92 76.97 510.34 85.41 514.97 93.27 C516.35 95.59 517.77 97.89 519.19 100.19 C525.1 110.11 529.44 120.32 533.34 131.16 C533.92 132.78 534.52 134.39 535.12 136.01 C539.12 146.72 542.25 157.37 544.35 168.59 C544.85 171.2 545.41 173.74 546.06 176.31 C547.31 181.7 547.75 187.22 548.3 192.71 C548.38 193.46 548.46 194.21 548.54 194.99 C548.6 195.66 548.67 196.34 548.73 197.04 C549.01 199.08 549.49 201.01 550 203 C551.22 213.65 551.11 224.42 551.12 235.12 C551.13 235.8 551.13 236.48 551.13 237.18 C551.17 249.84 550.62 262.34 548.62 274.88 C548.49 275.72 548.36 276.57 548.23 277.44 C546.53 288.2 544.61 298.86 542 309.44 C541.85 310.06 541.69 310.69 541.53 311.33 C537.96 325.36 533.05 340.05 526.14 352.8 C525.21 354.6 524.42 356.36 523.65 358.23 C521.84 362.5 519.64 366.52 517.38 370.56 C516.94 371.35 516.5 372.14 516.04 372.95 C510.58 382.63 504.65 391.92 498.06 400.88 C497.87 401.13 497.87 401.13 496.92 402.45 C496 403.67 495 404.84 494 406 C493.34 406 492.68 406 492 406 C491.32 407.33 490.66 408.66 490 410 C487.16 413.47 484.07 416.73 481 420 C480.35 420.7 479.69 421.39 479.02 422.11 C473.73 427.56 467.96 432.32 462 437 C461.67 437.26 461.67 437.26 460.01 438.57 C443.52 451.51 443.52 451.51 435 456 C434.42 456.31 433.84 456.61 433.24 456.93 C431.23 457.99 429.21 459.03 427.19 460.06 C426.57 460.38 425.96 460.7 425.32 461.02 C419.06 464.14 412.54 466.55 406 469 C406.33 469 406.33 469 407.98 469.02 C414.24 469.1 420.5 469.19 426.76 469.29 C429.98 469.34 433.2 469.38 436.41 469.42 C456.85 469.67 477.19 470.13 497.2 474.62 C499.08 475.02 500.95 475.36 502.84 475.68 C512.42 477.34 521.65 479.75 530.98 482.43 C533.73 483.2 536.48 483.89 539.25 484.56 C557.16 488.97 557.16 488.97 564.25 492.29 C566.53 493.22 568.86 493.77 571.25 494.38 C576.17 495.66 580.55 497.5 585.13 499.69 C588.15 501.07 591.2 502.23 594.31 503.38 C600.93 505.84 607.15 508.94 613.41 512.18 C615.66 513.34 617.92 514.45 620.19 515.56 C630.55 520.77 640.36 526.61 650.14 532.82 C651.77 533.85 653.4 534.87 655.05 535.88 C661.45 539.86 667.47 544.21 673.44 548.8 C675.02 550.01 676.6 551.21 678.19 552.41 C685.53 557.97 692.63 563.78 699.6 569.8 C700.8 570.83 702 571.85 703.21 572.86 C708.66 577.52 713.68 582.59 718.71 587.69 C721.7 590.72 724.72 593.73 727.75 596.72 C728.69 597.65 729.63 598.57 730.56 599.5 C731.03 599.96 731.5 600.42 731.98 600.89 C734.89 603.78 737.59 606.68 740 610 C740 610.66 740 611.32 740 612 C740.66 612 741.32 612 742 612 C742 612.66 742 613.32 742 614 C742.66 614 743.32 614 744 614 C745.44 615.57 746.75 617.14 748.06 618.81 C748.86 619.82 749.67 620.83 750.47 621.83 C750.68 622.09 750.68 622.09 751.72 623.41 C752.99 624.99 754.29 626.53 755.59 628.07 C755.8 628.32 755.8 628.32 756.85 629.56 C757.65 630.51 758.45 631.45 759.26 632.38 C761.32 634.85 762 635.67 762 639 C755.49 637.23 749.34 634.98 743.14 632.32 C739.93 630.97 736.69 629.72 733.44 628.5 C729.35 626.95 725.34 625.28 721.38 623.44 C716.89 621.35 712.35 619.61 707.69 617.96 C702.56 616.13 697.53 614.05 692.5 611.96 C687.51 609.92 682.53 608.2 677.34 606.71 C675.31 606.09 673.35 605.4 671.38 604.62 C666.63 602.78 661.77 601.35 656.9 599.89 C653.03 598.71 649.36 597.34 645.66 595.71 C637.78 592.36 629.2 590.5 620.87 588.65 C618.63 588.14 616.45 587.59 614.25 586.94 C610.99 586 607.73 585.26 604.41 584.56 C601.88 583.97 599.4 583.25 596.91 582.53 C593.59 581.61 590.23 580.84 586.88 580.06 C586.13 579.89 585.38 579.71 584.61 579.54 C583.1 579.18 581.59 578.83 580.08 578.48 C578.29 578.07 576.5 577.64 574.71 577.21 C536.74 568.23 498.03 562.49 459 562 C458.59 561.99 458.59 561.99 456.52 561.95 C452.22 561.88 447.94 561.89 443.64 561.96 C441.1 562 438.56 562 436.03 562.01 C419.73 562.07 403.87 563.42 387.75 565.88 C386.9 566 386.05 566.13 385.17 566.27 C376.45 567.61 367.86 569.09 359.34 571.4 C357.28 571.93 355.3 572.3 353.19 572.56 C349.67 573.05 346.4 574 343 575 C341.22 575.52 339.44 576.03 337.66 576.55 C332.44 578.07 327.22 579.6 322 581.13 C319.35 581.9 316.71 582.66 314.07 583.43 C293.13 589.51 293.13 589.51 284.77 593.29 C281.8 594.48 278.71 595.3 275.62 596.16 C273.55 596.82 271.65 597.56 269.66 598.44 C265.4 600.3 261.03 601.69 256.61 603.11 C252.84 604.33 249.23 605.73 245.6 607.33 C243.47 608.22 241.29 608.88 239.06 609.5 C235.36 610.58 231.78 611.8 228.18 613.19 C223.5 614.93 218.75 616.46 214 618 C213.44 618.18 212.88 618.36 212.3 618.55 C201.41 622.08 201.41 622.08 197.25 622.56 C194.56 622.93 192.7 623.42 190.2 624.34 C183.79 626.52 177.2 627.69 170.56 628.94 C170.22 629 170.22 629 168.5 629.33 C163.67 630.24 158.84 631.13 154 632 C153.7 632.05 153.7 632.05 152.21 632.32 C127.37 636.8 102.75 638.17 77.56 638.19 C77.15 638.19 77.15 638.19 75.05 638.19 C72.68 638.19 70.31 638.18 67.94 638.17 C67.24 638.17 66.54 638.17 65.82 638.16 C61.45 638.12 57.32 637.67 53 637 C51.71 636.89 50.42 636.81 49.12 636.75 C48.46 636.72 47.79 636.69 47.1 636.66 C46.76 636.64 46.76 636.64 45 636.56 C16.16 635.03 -13.54 628.81 -41 620 C-42.14 619.65 -43.27 619.31 -44.41 618.96 C-51.19 616.92 -57.82 614.69 -64.39 612.03 C-68.38 610.42 -72.33 608.86 -76.44 607.56 C-81.21 606 -85.7 603.98 -90.23 601.83 C-92.28 600.87 -94.34 599.91 -96.4 598.96 C-123.02 586.54 -123.02 586.54 -133.85 578.54 C-136.17 576.88 -138.54 575.44 -141 574 C-149.59 568.86 -157.8 563.65 -165.43 557.15 C-168.04 554.97 -170.73 552.98 -173.5 551 C-177.48 548.14 -181.37 545.2 -185.19 542.12 C-185.67 541.74 -186.15 541.36 -186.65 540.97 C-187.81 540.03 -188.91 539.02 -190 538 C-190 537.34 -190 536.68 -190 536 C-190.66 536 -191.32 536 -192 536 C-192 535.34 -192 534.68 -192 534 C-193.32 533.3 -194.65 532.64 -196 532 C-197.63 530.71 -197.63 530.71 -199.21 529.24 C-199.79 528.7 -200.37 528.16 -200.98 527.61 C-201.28 527.32 -201.28 527.32 -202.81 525.88 C-203.12 525.58 -203.12 525.58 -204.7 524.11 C-208.58 520.45 -212.26 516.7 -215.67 512.59 C-217 511 -217 511 -218.68 509.41 C-220 508 -220 508 -220 506 C-220.66 506 -221.32 506 -222 506 C-224.55 503.54 -226.73 500.72 -229 498 C-229.82 497.04 -230.64 496.08 -231.46 495.12 C-232.29 494.15 -233.11 493.17 -233.94 492.19 C-234.34 491.72 -234.74 491.25 -235.15 490.77 C-238 487.34 -238 487.34 -238 484 C-238.66 484 -239.32 484 -240 484 C-241.34 482.54 -241.34 482.54 -242.87 480.48 C-243.44 479.71 -244.01 478.95 -244.6 478.16 C-245.2 477.32 -245.81 476.49 -246.44 475.62 C-246.75 475.2 -246.75 475.2 -248.33 473.03 C-253.94 465.28 -258.94 457.24 -263.8 449.01 C-264.9 447.17 -266.03 445.35 -267.18 443.55 C-272.01 435.94 -276.09 428.09 -280.03 419.99 C-280.98 418.03 -281.96 416.09 -282.95 414.15 C-288.34 403.59 -288.34 403.59 -290.26 398.05 C-291.23 395.36 -292.37 392.75 -293.5 390.12 C-295.42 385.57 -296.98 381.04 -298.32 376.29 C-298.94 374.2 -299.65 372.21 -300.44 370.19 C-304.01 360.83 -306.47 351.44 -308.29 341.61 C-308.75 339.14 -309.32 336.73 -309.96 334.3 C-311.33 328.93 -312.17 323.47 -313.06 318 C-313.24 316.96 -313.41 315.92 -313.59 314.84 C-321.8 265.03 -319.26 209.34 -301 162 C-300.57 160.82 -300.14 159.64 -299.71 158.46 C-290.71 133.77 -279.37 110.7 -265.06 88.64 C-264.07 87.11 -263.09 85.57 -262.12 84.02 C-261.58 83.19 -261.05 82.36 -260.5 81.5 C-260.06 80.81 -259.61 80.12 -259.16 79.41 C-258.97 79.17 -258.97 79.17 -258 78 C-257.34 78 -256.68 78 -256 78 C-255.88 77.4 -255.77 76.81 -255.65 76.19 C-254.96 73.88 -254.21 72.74 -252.64 70.94 C-252.16 70.39 -251.69 69.84 -251.2 69.27 C-250.7 68.71 -250.2 68.14 -249.69 67.56 C-248.71 66.44 -247.74 65.32 -246.76 64.19 C-246.29 63.66 -245.82 63.12 -245.34 62.57 C-244.09 61.11 -242.93 59.62 -241.77 58.09 C-241.19 57.4 -240.6 56.71 -240 56 C-239.34 56 -238.68 56 -238 56 C-237.73 55.45 -237.46 54.9 -237.19 54.33 C-235.63 51.28 -233.41 49.12 -231 46.75 C-230.77 46.52 -230.77 46.52 -229.63 45.36 C-226.25 42 -226.25 42 -224 42 C-223.84 41.67 -223.84 41.67 -223 40 C-222.84 39.67 -222.84 39.67 -222 38 C-221.34 38 -220.68 38 -220 38 C-220 37.34 -220 36.68 -220 36 C-217.94 33.94 -215.56 32.22 -213.25 30.44 C-212.93 30.18 -212.93 30.18 -211.33 28.9 C-210.71 28.42 -210.09 27.93 -209.45 27.43 C-208.89 26.99 -208.32 26.55 -207.74 26.09 C-205.84 24.9 -204.19 24.43 -202 24 C-202 23.34 -202 22.68 -202 22 C-200.78 20.93 -200.78 20.93 -199.07 19.79 C-198.45 19.37 -197.82 18.95 -197.18 18.52 C-196.5 18.08 -195.82 17.64 -195.12 17.19 C-194.44 16.73 -193.75 16.28 -193.04 15.82 C-187.86 12.46 -182.59 9.62 -177 7 C-175.91 6.45 -174.82 5.89 -173.73 5.32 C-166.93 1.81 -160.14 -1.25 -152.94 -3.86 C-150 -5 -150 -5 -147.27 -6.45 C-142.97 -8.65 -138.32 -9.78 -133.69 -11.06 C-132.79 -11.32 -131.89 -11.57 -130.96 -11.84 C-87.75 -23.99 -40.53 -18.83 0 0 Z M266 93 C265.63 93.34 265.63 93.34 263.77 95.04 C239.01 118.45 227.39 153.59 220 186 C219.82 186.76 219.65 187.52 219.47 188.31 C214.5 210.4 213.2 233.4 214 256 C214.04 257.05 214.07 258.1 214.11 259.19 C214.69 273.9 216.29 288.26 218.94 302.75 C219.06 303.45 219.19 304.15 219.32 304.88 C220.58 311.72 221.93 318.42 224.29 324.98 C225.29 327.82 226.02 330.72 226.79 333.63 C228.85 341.51 231.37 348.69 235 356 C235.48 357.07 235.96 358.13 236.44 359.2 C239.51 366.12 242.97 372.58 247 379 C247.48 379.81 247.96 380.62 248.45 381.46 C250.07 384.12 251.82 386.65 253.62 389.19 C256.89 393.79 256.89 393.79 258 396 C258.66 396 259.32 396 260 396 C260.18 396.67 260.36 397.33 260.54 398.02 C262.67 402.37 265.89 405.32 269.31 408.69 C269.98 409.36 270.64 410.04 271.33 410.74 C277.39 416.76 277.39 416.76 282 418 C282 418.66 282 419.32 282 420 C283.86 421.11 285.68 422.07 287.62 423 C287.89 423.13 287.89 423.13 289.21 423.79 C304.27 431.15 323.9 432.06 339.94 426.94 C356.56 421.08 370.02 411.34 382.66 399.28 C383.84 398.16 385.03 397.05 386.22 395.94 C403.12 379.82 413.63 358.31 422.2 336.95 C422.96 335.09 423.77 333.25 424.58 331.4 C426 328.11 427.05 324.81 428.06 321.38 C429.82 315.43 429.82 315.43 430.99 312.63 C432.74 308.09 433.49 303.33 434.44 298.56 C434.64 297.58 434.85 296.59 435.06 295.58 C438.7 277.36 440.56 259.39 440.44 240.81 C440.44 240.33 440.44 240.33 440.43 237.87 C440.37 221.89 439.3 206.65 436 191 C435.82 190.14 435.65 189.27 435.47 188.38 C434.01 181.35 432.32 174.63 429.73 167.92 C429.08 166.22 428.5 164.49 427.93 162.75 C424.93 153.66 420.81 145.43 416.15 137.08 C415.36 135.66 414.59 134.22 413.84 132.78 C410.87 127.17 407.34 122.41 403.25 117.56 C402.09 116.17 400.93 114.77 399.77 113.38 C399.51 113.08 399.51 113.08 398.23 111.55 C397 110 397 110 396 108 C395.34 108 394.68 108 394 108 C394 107.34 394 106.68 394 106 C393.34 106 392.68 106 392 106 C391.33 104.67 390.67 103.33 390 102 C389.34 102 388.68 102 388 102 C388 101.34 388 100.68 388 100 C387.34 100 386.68 100 386 100 C386 99.34 386 98.68 386 98 C384.68 96.8 384.68 96.8 382.81 95.46 C382.12 94.97 381.43 94.47 380.72 93.96 C379.96 93.44 379.21 92.91 378.44 92.38 C377.67 91.84 376.9 91.3 376.11 90.75 C369.04 85.88 361.74 81.7 354 78 C353.13 77.58 352.26 77.16 351.37 76.73 C345.17 74 338.76 72.8 332.12 71.61 C329 71 329 71 327 70 C300.51 67.89 284.77 75.03 266 93 Z " fill="currentColor" transform="translate(1262,270)"/>
</svg>
